<svg id="SvgjsSvg1421" width="1194.25" height="592.5" xmlns="http://www.w3.org/2000/svg" version="1.1" xmlns:xlink="http://www.w3.org/1999/xlink" xmlns:svgjs="http://svgjs.com/svgjs"><defs id="SvgjsDefs1422"><marker id="SvgjsMarker1449" markerWidth="14" markerHeight="10" refX="10" refY="5" viewBox="0 0 14 10" orient="auto" markerUnits="userSpaceOnUse" stroke-dasharray="0,0"><path id="SvgjsPath1450" d="M0,0 L14,5 L0,10 L0,0" fill="#4caf50" stroke="#4caf50" stroke-width="1"></path></marker><marker id="SvgjsMarker1453" markerWidth="14" markerHeight="10" refX="10" refY="5" viewBox="0 0 14 10" orient="auto" markerUnits="userSpaceOnUse" stroke-dasharray="0,0"><path id="SvgjsPath1454" d="M0,0 L14,5 L0,10 L0,0" fill="#4caf50" stroke="#4caf50" stroke-width="1"></path></marker><marker id="SvgjsMarker1463" markerWidth="14" markerHeight="10" refX="10" refY="5" viewBox="0 0 14 10" orient="auto" markerUnits="userSpaceOnUse" stroke-dasharray="0,0"><path id="SvgjsPath1464" d="M0,0 L14,5 L0,10 L0,0" fill="#1976d2" stroke="#1976d2" stroke-width="1"></path></marker><marker id="SvgjsMarker1483" markerWidth="14" markerHeight="10" refX="10" refY="5" viewBox="0 0 14 10" orient="auto" markerUnits="userSpaceOnUse" stroke-dasharray="0,0"><path id="SvgjsPath1484" d="M0,0 L14,5 L0,10 L0,0" fill="#ff00ff" stroke="#ff00ff" stroke-width="1"></path></marker><marker id="SvgjsMarker1487" markerWidth="14" markerHeight="10" refX="10" refY="5" viewBox="0 0 14 10" orient="auto" markerUnits="userSpaceOnUse" stroke-dasharray="0,0"><path id="SvgjsPath1488" d="M0,0 L14,5 L0,10 L0,0" fill="#2196f3" stroke="#2196f3" stroke-width="1"></path></marker><marker id="SvgjsMarker1507" markerWidth="14" markerHeight="10" refX="10" refY="5" viewBox="0 0 14 10" orient="auto" markerUnits="userSpaceOnUse" stroke-dasharray="0,0"><path id="SvgjsPath1508" d="M0,0 L14,5 L0,10 L0,0" fill="#2196f3" stroke="#2196f3" stroke-width="1"></path></marker><marker id="SvgjsMarker1515" markerWidth="14" markerHeight="10" refX="10" refY="5" viewBox="0 0 14 10" orient="auto" markerUnits="userSpaceOnUse" stroke-dasharray="0,0"><path id="SvgjsPath1516" d="M0,0 L14,5 L0,10 L0,0" fill="#ff00ff" stroke="#ff00ff" stroke-width="1"></path></marker><marker id="SvgjsMarker1523" markerWidth="14" markerHeight="10" refX="10" refY="5" viewBox="0 0 14 10" orient="auto" markerUnits="userSpaceOnUse" stroke-dasharray="0,0"><path id="SvgjsPath1524" d="M0,0 L14,5 L0,10 L0,0" fill="#2196f3" stroke="#2196f3" stroke-width="1"></path></marker><marker id="SvgjsMarker1537" markerWidth="14" markerHeight="10" refX="10" refY="5" viewBox="0 0 14 10" orient="auto" markerUnits="userSpaceOnUse" stroke-dasharray="0,0"><path id="SvgjsPath1538" d="M0,0 L14,5 L0,10 L0,0" fill="#1976d2" stroke="#1976d2" stroke-width="1"></path></marker><marker id="SvgjsMarker1541" markerWidth="14" markerHeight="10" refX="10" refY="5" viewBox="0 0 14 10" orient="auto" markerUnits="userSpaceOnUse" stroke-dasharray="0,0"><path id="SvgjsPath1542" d="M0,0 L14,5 L0,10 L0,0" fill="#4caf50" stroke="#4caf50" stroke-width="1"></path></marker><marker id="SvgjsMarker1545" markerWidth="14" markerHeight="10" refX="10" refY="5" viewBox="0 0 14 10" orient="auto" markerUnits="userSpaceOnUse" stroke-dasharray="0,0"><path id="SvgjsPath1546" d="M0,0 L14,5 L0,10 L0,0" fill="#4caf50" stroke="#4caf50" stroke-width="1"></path></marker><marker id="SvgjsMarker1553" markerWidth="14" markerHeight="10" refX="10" refY="5" viewBox="0 0 14 10" orient="auto" markerUnits="userSpaceOnUse" stroke-dasharray="0,0"><path id="SvgjsPath1554" d="M0,0 L14,5 L0,10 L0,0" fill="#e57373" stroke="#e57373" stroke-width="1"></path></marker></defs><g id="SvgjsG1423" transform="translate(70.25,191)"><path id="SvgjsPath1424" d="M 0 4Q 0 0 4 0L 262 0Q 266 0 266 4L 266 49Q 266 53 262 53L 4 53Q 0 53 0 49Z" stroke="rgba(50,50,50,1)" stroke-width="2" fill-opacity="1" fill="#ffffff"></path><g id="SvgjsG1425"><text id="SvgjsText1426" font-family="微软雅黑" text-anchor="middle" font-size="13px" width="246px" fill="#323232" font-weight="400" align="middle" lineHeight="125%" anchor="middle" family="微软雅黑" size="13px" weight="400" font-style="" opacity="1" y="8.875" transform="rotate(0)"><tspan id="SvgjsTspan1427" dy="16" x="133"><tspan id="SvgjsTspan1428" style="text-decoration:;">data url</tspan></tspan><tspan id="SvgjsTspan1429" dy="16" x="133"><tspan id="SvgjsTspan1430" style="text-decoration:;">(data:[&lt;mediatype&gt;][;base64],&lt;data&gt;)</tspan></tspan></text></g></g><g id="SvgjsG1431" transform="translate(100.25,103)"><path id="SvgjsPath1432" d="M 0 0L 236 0L 236 58L 0 58Z" stroke="rgba(50,50,50,1)" stroke-width="2" fill-opacity="1" fill="#ffffff"></path><g id="SvgjsG1433"><text id="SvgjsText1434" font-family="微软雅黑" text-anchor="middle" font-size="13px" width="216px" fill="#323232" font-weight="400" align="middle" lineHeight="125%" anchor="middle" family="微软雅黑" size="13px" weight="400" font-style="" opacity="1" y="11.375" transform="rotate(0)"><tspan id="SvgjsTspan1435" dy="16" x="118"><tspan id="SvgjsTspan1436" style="text-decoration:;">blob url</tspan></tspan><tspan id="SvgjsTspan1437" dy="16" x="118"><tspan id="SvgjsTspan1438" style="text-decoration:;">（blob:&lt;origin&gt;/&lt;uuid&gt;）</tspan></tspan></text></g></g><g id="SvgjsG1439" transform="translate(505.25,137.5)"><path id="SvgjsPath1440" d="M 0 0L 187 0L 187 75L 0 75Z" stroke="rgba(50,50,50,1)" stroke-width="2" fill-opacity="1" fill="#ffffff"></path><g id="SvgjsG1441"><text id="SvgjsText1442" font-family="微软雅黑" text-anchor="middle" font-size="13px" width="167px" fill="#323232" font-weight="400" align="middle" lineHeight="125%" anchor="middle" family="微软雅黑" size="13px" weight="400" font-style="" opacity="1" y="19.875" transform="rotate(0)"><tspan id="SvgjsTspan1443" dy="16" x="93.5"><tspan id="SvgjsTspan1444" style="text-decoration:;">drawImage显示到canvas</tspan></tspan><tspan id="SvgjsTspan1445" dy="16" x="93.5"><tspan id="SvgjsTspan1446" style="text-decoration:;">(或者作为img和a的url)</tspan></tspan></text></g></g><g id="SvgjsG1447"><path id="SvgjsPath1448" d="M337.25 217.5L420.75 217.5L420.75 175L501.65 175" stroke="#4caf50" stroke-width="2" fill="none" marker-end="url(#SvgjsMarker1449)"></path></g><g id="SvgjsG1451"><path id="SvgjsPath1452" d="M337.25 132L420.75 132L420.75 175L501.65 175" stroke="#4caf50" stroke-width="2" fill="none" marker-end="url(#SvgjsMarker1453)"></path></g><g id="SvgjsG1455" transform="translate(842.25,140)"><path id="SvgjsPath1456" d="M 0 4Q 0 0 4 0L 96 0Q 100 0 100 4L 100 66Q 100 70 96 70L 4 70Q 0 70 0 66Z" stroke="rgba(50,50,50,1)" stroke-width="2" fill-opacity="1" fill="#ffffff"></path><g id="SvgjsG1457"><text id="SvgjsText1458" font-family="微软雅黑" text-anchor="middle" font-size="13px" width="80px" fill="#323232" font-weight="400" align="middle" lineHeight="125%" anchor="middle" family="微软雅黑" size="13px" weight="400" font-style="" opacity="1" y="25.375" transform="rotate(0)"><tspan id="SvgjsTspan1459" dy="16" x="50"><tspan id="SvgjsTspan1460" style="text-decoration:;">Blob</tspan></tspan></text></g></g><g id="SvgjsG1461"><path id="SvgjsPath1462" d="M693.25 175L767.25 175L767.25 175L838.6500000000001 175" stroke="#1976d2" stroke-width="2" fill="none" marker-end="url(#SvgjsMarker1463)"></path><rect id="SvgjsRect1465" width="86" height="16" x="722.95" y="167" fill="#ffffff"></rect><text id="SvgjsText1466" font-family="微软雅黑" text-anchor="middle" font-size="13px" width="86px" fill="#323232" font-weight="400" align="top" lineHeight="16px" anchor="middle" family="微软雅黑" size="13px" weight="400" font-style="" opacity="1" y="165.375" transform="rotate(0)"><tspan id="SvgjsTspan1467" dy="16" x="765.95"><tspan id="SvgjsTspan1468" style="text-decoration:;">canvas.toBlob</tspan></tspan></text></g><g id="SvgjsG1469" transform="translate(1021.25,159)"><path id="SvgjsPath1470" d="M 0 4Q 0 0 4 0L 144 0Q 148 0 148 4L 148 28Q 148 32 144 32L 4 32Q 0 32 0 28Z" stroke="rgba(50,50,50,1)" stroke-width="2" fill-opacity="1" fill="#ffffff"></path><g id="SvgjsG1471"><text id="SvgjsText1472" font-family="微软雅黑" text-anchor="middle" font-size="13px" width="128px" fill="#323232" font-weight="400" align="middle" lineHeight="125%" anchor="middle" family="微软雅黑" size="13px" weight="400" font-style="" opacity="1" y="6.375" transform="rotate(0)"><tspan id="SvgjsTspan1473" dy="16" x="74"><tspan id="SvgjsTspan1474" style="text-decoration:;">&lt;input type="file"&gt;</tspan></tspan></text></g></g><g id="SvgjsG1475" transform="translate(684.75,327)"><path id="SvgjsPath1476" d="M 0 4Q 0 0 4 0L 96 0Q 100 0 100 4L 100 66Q 100 70 96 70L 4 70Q 0 70 0 66Z" stroke="rgba(50,50,50,1)" stroke-width="2" fill-opacity="1" fill="#ffffff"></path><g id="SvgjsG1477"><text id="SvgjsText1478" font-family="微软雅黑" text-anchor="middle" font-size="13px" width="80px" fill="#323232" font-weight="400" align="middle" lineHeight="125%" anchor="middle" family="微软雅黑" size="13px" weight="400" font-style="" opacity="1" y="25.375" transform="rotate(0)"><tspan id="SvgjsTspan1479" dy="16" x="50"><tspan id="SvgjsTspan1480" style="text-decoration:;">FileReader</tspan></tspan></text></g></g><g id="SvgjsG1481"><path id="SvgjsPath1482" d="M892.25 211L892.25 362L788.3499999999999 362" stroke="#ff00ff" stroke-width="2" fill="none" marker-end="url(#SvgjsMarker1483)"></path></g><g id="SvgjsG1485"><path id="SvgjsPath1486" d="M683.75 362L203.25 362L203.25 247.60000000000002" stroke="#2196f3" stroke-width="2" fill="none" marker-end="url(#SvgjsMarker1487)"></path><rect id="SvgjsRect1489" width="134" height="16" x="319.29999999999995" y="354" fill="#ffffff"></rect><text id="SvgjsText1490" font-family="微软雅黑" text-anchor="middle" font-size="13px" width="134px" fill="#323232" font-weight="400" align="top" lineHeight="16px" anchor="middle" family="微软雅黑" size="13px" weight="400" font-style="" opacity="1" y="352.375" transform="rotate(0)"><tspan id="SvgjsTspan1491" dy="16" x="386.29999999999995"><tspan id="SvgjsTspan1492" style="text-decoration:;">readAsDataURL(blob)</tspan></tspan></text></g><g id="SvgjsG1493" transform="translate(25,430.5)"><path id="SvgjsPath1494" d="M 0 4Q 0 0 4 0L 250.5 0Q 254.5 0 254.5 4L 254.5 28Q 254.5 32 250.5 32L 4 32Q 0 32 0 28Z" stroke="rgba(50,50,50,1)" stroke-width="2" fill-opacity="1" fill="#ffffff"></path><g id="SvgjsG1495"><text id="SvgjsText1496" font-family="微软雅黑" text-anchor="middle" font-size="13px" width="235px" fill="#323232" font-weight="400" align="middle" lineHeight="125%" anchor="middle" family="微软雅黑" size="13px" weight="400" font-style="" opacity="1" y="6.375" transform="rotate(0)"><tspan id="SvgjsTspan1497" dy="16" x="127.5"><tspan id="SvgjsTspan1498" style="text-decoration:;">给定编码（默认为 utf-8 编码）的字符串</tspan></tspan></text></g></g><g id="SvgjsG1499" transform="translate(638.25,536.5)"><path id="SvgjsPath1500" d="M 0 4Q 0 0 4 0L 189 0Q 193 0 193 4L 193 27Q 193 31 189 31L 4 31Q 0 31 0 27Z" stroke="rgba(50,50,50,1)" stroke-width="2" fill-opacity="1" fill="#ffffff"></path><g id="SvgjsG1501"><text id="SvgjsText1502" font-family="微软雅黑" text-anchor="middle" font-size="13px" width="173px" fill="#323232" font-weight="400" align="middle" lineHeight="125%" anchor="middle" family="微软雅黑" size="13px" weight="400" font-style="" opacity="1" y="5.875" transform="rotate(0)"><tspan id="SvgjsTspan1503" dy="16" x="96.5"><tspan id="SvgjsTspan1504" style="text-decoration:;">二进制格式的 ArrayBuffer</tspan></tspan></text></g></g><g id="SvgjsG1505"><path id="SvgjsPath1506" d="M683.75 362L482.125 362L482.125 446.5L283.1 446.5" stroke="#2196f3" stroke-width="2" fill="none" marker-end="url(#SvgjsMarker1507)"></path><rect id="SvgjsRect1509" width="180" height="16" x="392.125" y="394.95000000000005" fill="#ffffff"></rect><text id="SvgjsText1510" font-family="微软雅黑" text-anchor="middle" font-size="13px" width="180px" fill="#323232" font-weight="400" align="top" lineHeight="16px" anchor="middle" family="微软雅黑" size="13px" weight="400" font-style="" opacity="1" y="393.32500000000005" transform="rotate(0)"><tspan id="SvgjsTspan1511" dy="16" x="482.125"><tspan id="SvgjsTspan1512" style="text-decoration:;">readAsText(blob, [encoding])</tspan></tspan></text></g><g id="SvgjsG1513"><path id="SvgjsPath1514" d="M892.25 211L892.25 502.25L734.75 502.25L734.75 532.9" stroke="#ff00ff" stroke-width="2" fill="none" marker-end="url(#SvgjsMarker1515)"></path><rect id="SvgjsRect1517" width="109" height="16" x="837.75" y="442.7" fill="#ffffff"></rect><text id="SvgjsText1518" font-family="微软雅黑" text-anchor="middle" font-size="13px" width="109px" fill="#323232" font-weight="400" align="top" lineHeight="16px" anchor="middle" family="微软雅黑" size="13px" weight="400" font-style="" opacity="1" y="441.075" transform="rotate(0)"><tspan id="SvgjsTspan1519" dy="16" x="892.25"><tspan id="SvgjsTspan1520" style="text-decoration:;">blob.arrayBuffer()</tspan></tspan></text></g><g id="SvgjsG1521"><path id="SvgjsPath1522" d="M683.75 362L611.75 362L611.75 502.5L734.75 502.5L734.75 532.9" stroke="#2196f3" stroke-width="2" fill="none" marker-end="url(#SvgjsMarker1523)"></path><rect id="SvgjsRect1525" width="151" height="16" x="536.25" y="464.95000000000005" fill="#ffffff"></rect><text id="SvgjsText1526" font-family="微软雅黑" text-anchor="middle" font-size="13px" width="151px" fill="#323232" font-weight="400" align="top" lineHeight="16px" anchor="middle" family="微软雅黑" size="13px" weight="400" font-style="" opacity="1" y="463.32500000000005" transform="rotate(0)"><tspan id="SvgjsTspan1527" dy="16" x="611.75"><tspan id="SvgjsTspan1528" style="text-decoration:;">readAsArrayBuffer(blob)</tspan></tspan></text></g><g id="SvgjsG1529" transform="translate(844.25,142)"><path id="SvgjsPath1530" d="M 0 11.25C 0 -3.75 50 -3.75 50 11.25C 50 26.25 0 26.25 0 11.25Z" stroke="rgba(50,50,50,1)" stroke-width="2" fill-opacity="1" fill="#ffffff"></path><g id="SvgjsG1531"><text id="SvgjsText1532" font-family="微软雅黑" text-anchor="middle" font-size="13px" width="30px" fill="#323232" font-weight="400" align="middle" lineHeight="125%" anchor="middle" family="微软雅黑" size="13px" weight="400" font-style="" opacity="1" y="1.625" transform="rotate(0)"><tspan id="SvgjsTspan1533" dy="16" x="25"><tspan id="SvgjsTspan1534" style="text-decoration:;">File</tspan></tspan></text></g></g><g id="SvgjsG1535"><path id="SvgjsPath1536" d="M1020.25 175L981.75 175L981.75 175L945.8499999999999 175" stroke="#1976d2" stroke-width="2" fill="none" marker-end="url(#SvgjsMarker1537)"></path></g><g id="SvgjsG1539"><path id="SvgjsPath1540" d="M99.25 132L40.25 132L40.25 25L892.25 25L892.25 136.39999999999998" stroke="#4caf50" stroke-width="2" fill="none" marker-end="url(#SvgjsMarker1541)"></path></g><g id="SvgjsG1543"><path id="SvgjsPath1544" d="M69.25 217.5L40.25 217.5L40.25 26L892.25 26L892.25 136.39999999999998" stroke="#4caf50" stroke-width="2" fill="none" marker-end="url(#SvgjsMarker1545)"></path><rect id="SvgjsRect1547" width="293" height="16" x="264.70000000000005" y="18" fill="#ffffff"></rect><text id="SvgjsText1548" font-family="微软雅黑" text-anchor="middle" font-size="13px" width="293px" fill="#323232" font-weight="400" align="top" lineHeight="16px" anchor="middle" family="微软雅黑" size="13px" weight="400" font-style="" opacity="1" y="16.375" transform="rotate(0)"><tspan id="SvgjsTspan1549" dy="16" x="411.20000000000005"><tspan id="SvgjsTspan1550" style="text-decoration:;">const blob = await fetch(url).then(r =&gt; r.blob())</tspan></tspan></text></g><g id="SvgjsG1551"><path id="SvgjsPath1552" d="M892.25 139L892.25 73L218.25 73L218.25 99.4" stroke="#e57373" stroke-width="2" fill="none" marker-end="url(#SvgjsMarker1553)"></path><rect id="SvgjsRect1555" width="132" height="16" x="509.04999999999995" y="65" fill="#ffffff"></rect><text id="SvgjsText1556" font-family="微软雅黑" text-anchor="middle" font-size="13px" width="132px" fill="#323232" font-weight="400" align="top" lineHeight="16px" anchor="middle" family="微软雅黑" size="13px" weight="400" font-style="" opacity="1" y="63.375" transform="rotate(0)"><tspan id="SvgjsTspan1557" dy="16" x="575.05"><tspan id="SvgjsTspan1558" style="text-decoration:;">URL.createObjectURL</tspan></tspan></text></g></svg>