<svg id="SvgjsSvg1006" width="1194.25" height="487.5" xmlns="http://www.w3.org/2000/svg" version="1.1" xmlns:xlink="http://www.w3.org/1999/xlink" xmlns:svgjs="http://svgjs.com/svgjs"><defs id="SvgjsDefs1007"><marker id="SvgjsMarker1032" markerWidth="14" markerHeight="10" refX="10" refY="5" viewBox="0 0 14 10" orient="auto" markerUnits="userSpaceOnUse" stroke-dasharray="0,0"><path id="SvgjsPath1033" d="M0,0 L14,5 L0,10 L0,0" fill="#4caf50" stroke="#4caf50" stroke-width="1"></path></marker><marker id="SvgjsMarker1036" markerWidth="14" markerHeight="10" refX="10" refY="5" viewBox="0 0 14 10" orient="auto" markerUnits="userSpaceOnUse" stroke-dasharray="0,0"><path id="SvgjsPath1037" d="M0,0 L14,5 L0,10 L0,0" fill="#4caf50" stroke="#4caf50" stroke-width="1"></path></marker><marker id="SvgjsMarker1050" markerWidth="14" markerHeight="10" refX="10" refY="5" viewBox="0 0 14 10" orient="auto" markerUnits="userSpaceOnUse" stroke-dasharray="0,0"><path id="SvgjsPath1051" d="M0,0 L14,5 L0,10 L0,0" fill="#1976d2" stroke="#1976d2" stroke-width="1"></path></marker><marker id="SvgjsMarker1070" markerWidth="14" markerHeight="10" refX="10" refY="5" viewBox="0 0 14 10" orient="auto" markerUnits="userSpaceOnUse" stroke-dasharray="0,0"><path id="SvgjsPath1071" d="M0,0 L14,5 L0,10 L0,0" fill="#ff00ff" stroke="#ff00ff" stroke-width="1"></path></marker><marker id="SvgjsMarker1074" markerWidth="14" markerHeight="10" refX="10" refY="5" viewBox="0 0 14 10" orient="auto" markerUnits="userSpaceOnUse" stroke-dasharray="0,0"><path id="SvgjsPath1075" d="M0,0 L14,5 L0,10 L0,0" fill="#2196f3" stroke="#2196f3" stroke-width="1"></path></marker><marker id="SvgjsMarker1094" markerWidth="14" markerHeight="10" refX="10" refY="5" viewBox="0 0 14 10" orient="auto" markerUnits="userSpaceOnUse" stroke-dasharray="0,0"><path id="SvgjsPath1095" d="M0,0 L14,5 L0,10 L0,0" fill="#2196f3" stroke="#2196f3" stroke-width="1"></path></marker><marker id="SvgjsMarker1108" markerWidth="14" markerHeight="10" refX="10" refY="5" viewBox="0 0 14 10" orient="auto" markerUnits="userSpaceOnUse" stroke-dasharray="0,0"><path id="SvgjsPath1109" d="M0,0 L14,5 L0,10 L0,0" fill="#1976d2" stroke="#1976d2" stroke-width="1"></path></marker><marker id="SvgjsMarker1112" markerWidth="14" markerHeight="10" refX="10" refY="5" viewBox="0 0 14 10" orient="auto" markerUnits="userSpaceOnUse" stroke-dasharray="0,0"><path id="SvgjsPath1113" d="M0,0 L14,5 L0,10 L0,0" fill="#4caf50" stroke="#4caf50" stroke-width="1"></path></marker><marker id="SvgjsMarker1116" markerWidth="14" markerHeight="10" refX="10" refY="5" viewBox="0 0 14 10" orient="auto" markerUnits="userSpaceOnUse" stroke-dasharray="0,0"><path id="SvgjsPath1117" d="M0,0 L14,5 L0,10 L0,0" fill="#4caf50" stroke="#4caf50" stroke-width="1"></path></marker><marker id="SvgjsMarker1124" markerWidth="14" markerHeight="10" refX="10" refY="5" viewBox="0 0 14 10" orient="auto" markerUnits="userSpaceOnUse" stroke-dasharray="0,0"><path id="SvgjsPath1125" d="M0,0 L14,5 L0,10 L0,0" fill="#e57373" stroke="#e57373" stroke-width="1"></path></marker><marker id="SvgjsMarker1132" markerWidth="14" markerHeight="10" refX="10" refY="5" viewBox="0 0 14 10" orient="auto" markerUnits="userSpaceOnUse" stroke-dasharray="0,0"><path id="SvgjsPath1133" d="M0,0 L14,5 L0,10 L0,0" fill="#ff00ff" stroke="#ff00ff" stroke-width="1"></path></marker><marker id="SvgjsMarker1140" markerWidth="14" markerHeight="10" refX="10" refY="5" viewBox="0 0 14 10" orient="auto" markerUnits="userSpaceOnUse" stroke-dasharray="0,0"><path id="SvgjsPath1141" d="M0,0 L14,5 L0,10 L0,0" fill="#2196f3" stroke="#2196f3" stroke-width="1"></path></marker><marker id="SvgjsMarker1148" markerWidth="14" markerHeight="10" refX="10" refY="5" viewBox="0 0 14 10" orient="auto" markerUnits="userSpaceOnUse" stroke-dasharray="0,0"><path id="SvgjsPath1149" d="M0,0 L14,5 L0,10 L0,0" fill="#2196f3" stroke="#2196f3" stroke-width="1"></path></marker></defs><g id="SvgjsG1008" transform="translate(70.25,191)"><path id="SvgjsPath1009" d="M 0 4Q 0 0 4 0L 262 0Q 266 0 266 4L 266 49Q 266 53 262 53L 4 53Q 0 53 0 49Z" stroke="rgba(129,199,132,1)" stroke-width="2" fill-opacity="1" fill="#ffffff"></path><g id="SvgjsG1010"><text id="SvgjsText1011" font-family="微软雅黑" text-anchor="middle" font-size="13px" width="246px" fill="#323232" font-weight="400" align="middle" lineHeight="125%" anchor="middle" family="微软雅黑" size="13px" weight="400" font-style="" opacity="1" y="8.875" transform="rotate(0)"><tspan id="SvgjsTspan1012" dy="16" x="133"><tspan id="SvgjsTspan1013" style="text-decoration:;">data url</tspan></tspan><tspan id="SvgjsTspan1014" dy="16" x="133"><tspan id="SvgjsTspan1015" style="text-decoration:;">(data:[&lt;mediatype&gt;][;base64],&lt;data&gt;)</tspan></tspan></text></g></g><g id="SvgjsG1016" transform="translate(100.25,103)"><path id="SvgjsPath1017" d="M 0 0L 236 0L 236 58L 0 58Z" stroke="rgba(129,199,132,1)" stroke-width="2" fill-opacity="1" fill="#ffffff"></path><g id="SvgjsG1018"><text id="SvgjsText1019" font-family="微软雅黑" text-anchor="middle" font-size="13px" width="216px" fill="#323232" font-weight="400" align="middle" lineHeight="125%" anchor="middle" family="微软雅黑" size="13px" weight="400" font-style="" opacity="1" y="11.375" transform="rotate(0)"><tspan id="SvgjsTspan1020" dy="16" x="118"><tspan id="SvgjsTspan1021" style="text-decoration:;">blob url</tspan></tspan><tspan id="SvgjsTspan1022" dy="16" x="118"><tspan id="SvgjsTspan1023" style="text-decoration:;">（blob:&lt;origin&gt;/&lt;uuid&gt;）</tspan></tspan></text></g></g><g id="SvgjsG1024" transform="translate(502.25,137.5)"><path id="SvgjsPath1025" d="M 0 0L 187 0L 187 75L 0 75Z" stroke="rgba(129,199,132,1)" stroke-width="2" fill-opacity="1" fill="#ffffff"></path><g id="SvgjsG1026"><text id="SvgjsText1027" font-family="微软雅黑" text-anchor="middle" font-size="13px" width="167px" fill="#323232" font-weight="400" align="middle" lineHeight="125%" anchor="middle" family="微软雅黑" size="13px" weight="400" font-style="" opacity="1" y="27.875" transform="rotate(0)"><tspan id="SvgjsTspan1028" dy="16" x="93.5"><tspan id="SvgjsTspan1029" style="text-decoration:;">canvas</tspan></tspan></text></g></g><g id="SvgjsG1030"><path id="SvgjsPath1031" d="M337.25 217.5L388.25 217.5L388.25 175L498.65 175" stroke="#4caf50" stroke-width="2" fill="none" marker-end="url(#SvgjsMarker1032)"></path></g><g id="SvgjsG1034"><path id="SvgjsPath1035" d="M337.25 132L388.25 132L388.25 175L498.65 175" stroke="#4caf50" stroke-width="2" fill="none" marker-end="url(#SvgjsMarker1036)"></path><rect id="SvgjsRect1038" width="70" height="16" x="361.45" y="167" fill="#ffffff"></rect><text id="SvgjsText1039" font-family="微软雅黑" text-anchor="middle" font-size="13px" width="70px" fill="#323232" font-weight="400" align="top" lineHeight="16px" anchor="middle" family="微软雅黑" size="13px" weight="400" font-style="" opacity="1" y="165.375" transform="rotate(0)"><tspan id="SvgjsTspan1040" dy="16" x="396.45"><tspan id="SvgjsTspan1041" style="text-decoration:;">drawImage</tspan></tspan></text></g><g id="SvgjsG1042" transform="translate(842.25,140)"><path id="SvgjsPath1043" d="M 0 4Q 0 0 4 0L 96 0Q 100 0 100 4L 100 66Q 100 70 96 70L 4 70Q 0 70 0 66Z" stroke="rgba(129,199,132,1)" stroke-width="2" fill-opacity="1" fill="#ffffff"></path><g id="SvgjsG1044"><text id="SvgjsText1045" font-family="微软雅黑" text-anchor="middle" font-size="13px" width="80px" fill="#323232" font-weight="400" align="middle" lineHeight="125%" anchor="middle" family="微软雅黑" size="13px" weight="400" font-style="" opacity="1" y="25.375" transform="rotate(0)"><tspan id="SvgjsTspan1046" dy="16" x="50"><tspan id="SvgjsTspan1047" style="text-decoration:;">Blob</tspan></tspan></text></g></g><g id="SvgjsG1048"><path id="SvgjsPath1049" d="M690.25 175L765.75 175L765.75 175L838.6500000000001 175" stroke="#1976d2" stroke-width="2" fill="none" marker-end="url(#SvgjsMarker1050)"></path><rect id="SvgjsRect1052" width="86" height="16" x="721.45" y="167" fill="#ffffff"></rect><text id="SvgjsText1053" font-family="微软雅黑" text-anchor="middle" font-size="13px" width="86px" fill="#323232" font-weight="400" align="top" lineHeight="16px" anchor="middle" family="微软雅黑" size="13px" weight="400" font-style="" opacity="1" y="165.375" transform="rotate(0)"><tspan id="SvgjsTspan1054" dy="16" x="764.45"><tspan id="SvgjsTspan1055" style="text-decoration:;">canvas.toBlob</tspan></tspan></text></g><g id="SvgjsG1056" transform="translate(1021.25,159)"><path id="SvgjsPath1057" d="M 0 4Q 0 0 4 0L 144 0Q 148 0 148 4L 148 28Q 148 32 144 32L 4 32Q 0 32 0 28Z" stroke="rgba(129,199,132,1)" stroke-width="2" fill-opacity="1" fill="#ffffff"></path><g id="SvgjsG1058"><text id="SvgjsText1059" font-family="微软雅黑" text-anchor="middle" font-size="13px" width="128px" fill="#323232" font-weight="400" align="middle" lineHeight="125%" anchor="middle" family="微软雅黑" size="13px" weight="400" font-style="" opacity="1" y="6.375" transform="rotate(0)"><tspan id="SvgjsTspan1060" dy="16" x="74"><tspan id="SvgjsTspan1061" style="text-decoration:;">&lt;input type="file"&gt;</tspan></tspan></text></g></g><g id="SvgjsG1062" transform="translate(676.75,374)"><path id="SvgjsPath1063" d="M 0 4Q 0 0 4 0L 96 0Q 100 0 100 4L 100 66Q 100 70 96 70L 4 70Q 0 70 0 66Z" stroke="rgba(129,199,132,1)" stroke-width="2" fill-opacity="1" fill="#ffffff"></path><g id="SvgjsG1064"><text id="SvgjsText1065" font-family="微软雅黑" text-anchor="middle" font-size="13px" width="80px" fill="#323232" font-weight="400" align="middle" lineHeight="125%" anchor="middle" family="微软雅黑" size="13px" weight="400" font-style="" opacity="1" y="25.375" transform="rotate(0)"><tspan id="SvgjsTspan1066" dy="16" x="50"><tspan id="SvgjsTspan1067" style="text-decoration:;">FileReader</tspan></tspan></text></g></g><g id="SvgjsG1068"><path id="SvgjsPath1069" d="M892.25 211L892.25 409L780.3499999999999 409" stroke="#ff00ff" stroke-width="2" fill="none" marker-end="url(#SvgjsMarker1070)"></path></g><g id="SvgjsG1072"><path id="SvgjsPath1073" d="M675.75 409L203.25 409L203.25 247.60000000000002" stroke="#2196f3" stroke-width="2" fill="none" marker-end="url(#SvgjsMarker1074)"></path><rect id="SvgjsRect1076" width="134" height="16" x="291.80000000000007" y="401" fill="#ffffff"></rect><text id="SvgjsText1077" font-family="微软雅黑" text-anchor="middle" font-size="13px" width="134px" fill="#323232" font-weight="400" align="top" lineHeight="16px" anchor="middle" family="微软雅黑" size="13px" weight="400" font-style="" opacity="1" y="399.375" transform="rotate(0)"><tspan id="SvgjsTspan1078" dy="16" x="358.80000000000007"><tspan id="SvgjsTspan1079" style="text-decoration:;">readAsDataURL(blob)</tspan></tspan></text></g><g id="SvgjsG1080" transform="translate(25,430.5)"><path id="SvgjsPath1081" d="M 0 4Q 0 0 4 0L 250.5 0Q 254.5 0 254.5 4L 254.5 28Q 254.5 32 250.5 32L 4 32Q 0 32 0 28Z" stroke="rgba(129,199,132,1)" stroke-width="2" fill-opacity="1" fill="#ffffff"></path><g id="SvgjsG1082"><text id="SvgjsText1083" font-family="微软雅黑" text-anchor="middle" font-size="13px" width="235px" fill="#323232" font-weight="400" align="middle" lineHeight="125%" anchor="middle" family="微软雅黑" size="13px" weight="400" font-style="" opacity="1" y="6.375" transform="rotate(0)"><tspan id="SvgjsTspan1084" dy="16" x="127.5"><tspan id="SvgjsTspan1085" style="text-decoration:;">给定编码（默认为 utf-8 编码）的字符串</tspan></tspan></text></g></g><g id="SvgjsG1086" transform="translate(499.25,288.5)"><path id="SvgjsPath1087" d="M 0 4Q 0 0 4 0L 189 0Q 193 0 193 4L 193 27Q 193 31 189 31L 4 31Q 0 31 0 27Z" stroke="rgba(129,199,132,1)" stroke-width="2" fill-opacity="1" fill="#ffffff"></path><g id="SvgjsG1088"><text id="SvgjsText1089" font-family="微软雅黑" text-anchor="middle" font-size="13px" width="173px" fill="#323232" font-weight="400" align="middle" lineHeight="125%" anchor="middle" family="微软雅黑" size="13px" weight="400" font-style="" opacity="1" y="5.875" transform="rotate(0)"><tspan id="SvgjsTspan1090" dy="16" x="96.5"><tspan id="SvgjsTspan1091" style="text-decoration:;">二进制格式的 ArrayBuffer</tspan></tspan></text></g></g><g id="SvgjsG1092"><path id="SvgjsPath1093" d="M675.75 409L596.125 409L596.125 446.5L283.1 446.5" stroke="#2196f3" stroke-width="2" fill="none" marker-end="url(#SvgjsMarker1094)"></path><rect id="SvgjsRect1096" width="180" height="16" x="379.475" y="438.5" fill="#ffffff"></rect><text id="SvgjsText1097" font-family="微软雅黑" text-anchor="middle" font-size="13px" width="180px" fill="#323232" font-weight="400" align="top" lineHeight="16px" anchor="middle" family="微软雅黑" size="13px" weight="400" font-style="" opacity="1" y="436.875" transform="rotate(0)"><tspan id="SvgjsTspan1098" dy="16" x="469.475"><tspan id="SvgjsTspan1099" style="text-decoration:;">readAsText(blob, [encoding])</tspan></tspan></text></g><g id="SvgjsG1100" transform="translate(844.25,142)"><path id="SvgjsPath1101" d="M 0 11.25C 0 -3.75 50 -3.75 50 11.25C 50 26.25 0 26.25 0 11.25Z" stroke="rgba(50,50,50,1)" stroke-width="2" fill-opacity="1" fill="#ffffff"></path><g id="SvgjsG1102"><text id="SvgjsText1103" font-family="微软雅黑" text-anchor="middle" font-size="13px" width="30px" fill="#323232" font-weight="400" align="middle" lineHeight="125%" anchor="middle" family="微软雅黑" size="13px" weight="400" font-style="" opacity="1" y="1.625" transform="rotate(0)"><tspan id="SvgjsTspan1104" dy="16" x="25"><tspan id="SvgjsTspan1105" style="text-decoration:;">File</tspan></tspan></text></g></g><g id="SvgjsG1106"><path id="SvgjsPath1107" d="M1020.25 175L981.75 175L981.75 175L945.8499999999999 175" stroke="#1976d2" stroke-width="2" fill="none" marker-end="url(#SvgjsMarker1108)"></path></g><g id="SvgjsG1110"><path id="SvgjsPath1111" d="M99.25 132L40.25 132L40.25 25L892.25 25L892.25 136.39999999999998" stroke="#4caf50" stroke-width="2" fill="none" marker-end="url(#SvgjsMarker1112)"></path></g><g id="SvgjsG1114"><path id="SvgjsPath1115" d="M69.25 217.5L40.25 217.5L40.25 26L892.25 26L892.25 136.39999999999998" stroke="#4caf50" stroke-width="2" fill="none" marker-end="url(#SvgjsMarker1116)"></path><rect id="SvgjsRect1118" width="293" height="16" x="264.70000000000005" y="18" fill="#ffffff"></rect><text id="SvgjsText1119" font-family="微软雅黑" text-anchor="middle" font-size="13px" width="293px" fill="#323232" font-weight="400" align="top" lineHeight="16px" anchor="middle" family="微软雅黑" size="13px" weight="400" font-style="" opacity="1" y="16.375" transform="rotate(0)"><tspan id="SvgjsTspan1120" dy="16" x="411.20000000000005"><tspan id="SvgjsTspan1121" style="text-decoration:;">const blob = await fetch(url).then(r =&gt; r.blob())</tspan></tspan></text></g><g id="SvgjsG1122"><path id="SvgjsPath1123" d="M892.25 139L892.25 73L218.25 73L218.25 99.4" stroke="#e57373" stroke-width="2" fill="none" marker-end="url(#SvgjsMarker1124)"></path><rect id="SvgjsRect1126" width="132" height="16" x="509.04999999999995" y="65" fill="#ffffff"></rect><text id="SvgjsText1127" font-family="微软雅黑" text-anchor="middle" font-size="13px" width="132px" fill="#323232" font-weight="400" align="top" lineHeight="16px" anchor="middle" family="微软雅黑" size="13px" weight="400" font-style="" opacity="1" y="63.375" transform="rotate(0)"><tspan id="SvgjsTspan1128" dy="16" x="575.05"><tspan id="SvgjsTspan1129" style="text-decoration:;">URL.createObjectURL</tspan></tspan></text></g><g id="SvgjsG1130"><path id="SvgjsPath1131" d="M892.25 211L892.25 304L695.85 304" stroke="#ff00ff" stroke-width="2" fill="none" marker-end="url(#SvgjsMarker1132)"></path><rect id="SvgjsRect1134" width="109" height="16" x="747.75" y="295" fill="#ffffff"></rect><text id="SvgjsText1135" font-family="微软雅黑" text-anchor="middle" font-size="13px" width="109px" fill="#323232" font-weight="400" align="top" lineHeight="16px" anchor="middle" family="微软雅黑" size="13px" weight="400" font-style="" opacity="1" y="293.375" transform="rotate(0)"><tspan id="SvgjsTspan1136" dy="16" x="802.25"><tspan id="SvgjsTspan1137" style="text-decoration:;">blob.arrayBuffer()</tspan></tspan></text></g><g id="SvgjsG1138"><path id="SvgjsPath1139" d="M675.75 409L595.75 409L595.75 323.1" stroke="#2196f3" stroke-width="2" fill="none" marker-end="url(#SvgjsMarker1140)"></path><rect id="SvgjsRect1142" width="151" height="16" x="520.25" y="359.72499999999997" fill="#ffffff"></rect><text id="SvgjsText1143" font-family="微软雅黑" text-anchor="middle" font-size="13px" width="151px" fill="#323232" font-weight="400" align="top" lineHeight="16px" anchor="middle" family="微软雅黑" size="13px" weight="400" font-style="" opacity="1" y="358.09999999999997" transform="rotate(0)"><tspan id="SvgjsTspan1144" dy="16" x="595.75"><tspan id="SvgjsTspan1145" style="text-decoration:;">readAsArrayBuffer(blob)</tspan></tspan></text></g><g id="SvgjsG1146"><path id="SvgjsPath1147" d="M595.75 213.5L595.75 250.5L595.75 250.5L595.75 284.9" stroke="#2196f3" stroke-width="2" fill="none" marker-end="url(#SvgjsMarker1148)"></path><rect id="SvgjsRect1150" width="177" height="16" x="507.25" y="241.2" fill="#ffffff"></rect><text id="SvgjsText1151" font-family="微软雅黑" text-anchor="middle" font-size="13px" width="177px" fill="#323232" font-weight="400" align="top" lineHeight="16px" anchor="middle" family="微软雅黑" size="13px" weight="400" font-style="" opacity="1" y="239.575" transform="rotate(0)"><tspan id="SvgjsTspan1152" dy="16" x="595.75"><tspan id="SvgjsTspan1153" style="text-decoration:;">getImaggeData().data.buffer</tspan></tspan></text></g></svg>