<svg width="748" height="120" xmlns="http://www.w3.org/2000/svg"><path d="M25 29q0-4 4-4h92q4 0 4 4v62q0 4-4 4H29q-4 0-4-4Z" stroke="rgba(100,183,83,1)" stroke-width="2" fill="#64b753"/><text font-family="微软雅黑" text-anchor="middle" font-size="16" fill="#fff" font-weight="400" y="23" transform="translate(25 25)"><tspan dy="20" x="50"><tspan>安装及更新</tspan></tspan></text><path d="M174.5 29q0-4 4-4h92q4 0 4 4v62q0 4-4 4h-92q-4 0-4-4Z" stroke="rgba(100,183,83,1)" stroke-width="2" fill="#64b753"/><text font-family="微软雅黑" text-anchor="middle" font-size="17" fill="#fff" font-weight="400" y="11.375" transform="translate(174.5 25)"><tspan dy="21" x="50"><tspan>建立虚拟</tspan></tspan><tspan dy="21" x="50"><tspan>环境</tspan></tspan></text><path d="M135.5 55.07h15.675V45.5L164 60l-12.825 14.5v-9.57H135.5v-9.86ZM285 55.07h15.675V45.5L313.5 60l-12.825 14.5v-9.57H285v-9.86Z" stroke="rgba(229,115,115,1)" stroke-width="2" fill="#e57373"/><path d="M324 29q0-4 4-4h92q4 0 4 4v62q0 4-4 4h-92q-4 0-4-4Z" stroke="rgba(100,183,83,1)" stroke-width="2" fill="#64b753"/><text font-family="微软雅黑" text-anchor="middle" font-size="17" fill="#fff" font-weight="400" y="11.375" transform="translate(324 25)"><tspan dy="21" x="50"><tspan>启动虚拟</tspan></tspan><tspan dy="21" x="50"><tspan>环境</tspan></tspan></text><g><path d="M434.5 55.07h15.675V45.5L463 60l-12.825 14.5v-9.57H434.5v-9.86Z" stroke="rgba(229,115,115,1)" stroke-width="2" fill="#e57373"/></g><g><path d="M473.5 29q0-4 4-4h92q4 0 4 4v62q0 4-4 4h-92q-4 0-4-4Z" stroke="rgba(100,183,83,1)" stroke-width="2" fill="#64b753"/><text font-family="微软雅黑" text-anchor="middle" font-size="17" fill="#fff" font-weight="400" y="11.375" transform="translate(473.5 25)"><tspan dy="21" x="50"><tspan>离开虚拟</tspan></tspan><tspan dy="21" x="50"><tspan>环境</tspan></tspan></text></g><g><path d="M584 55.155h15.675V45.75L612.5 60l-12.825 14.25v-9.405H584v-9.69Z" stroke="rgba(229,115,115,1)" stroke-width="2" fill="#e57373"/></g><g><path d="M623 29q0-4 4-4h92q4 0 4 4v62q0 4-4 4h-92q-4 0-4-4Z" stroke="rgba(100,183,83,1)" stroke-width="2" fill="#64b753"/><text font-family="微软雅黑" text-anchor="middle" font-size="16" fill="#fff" font-weight="400" y="13" transform="translate(623 25)"><tspan dy="20" x="50"><tspan>删除虚拟环</tspan></tspan><tspan dy="20" x="50"><tspan>境或包</tspan></tspan></text></g></svg>